<svg width="39" height="48" viewBox="0 0 39 48" fill="none" xmlns="http://www.w3.org/2000/svg">
<path d="M22.2336 21.0261C22.4305 21.0765 22.5984 21.1995 22.7004 21.3681C22.8024 21.5368 22.8302 21.7373 22.7777 21.9256L18.707 36.4551C18.6541 36.6435 18.5252 36.8041 18.3485 36.9016C18.1718 36.9991 17.9619 37.0254 17.7649 36.9749C17.5678 36.9243 17.3999 36.801 17.298 36.6321C17.196 36.4631 17.1685 36.2624 17.2213 36.074L21.293 21.5444C21.3192 21.4512 21.3643 21.3638 21.4258 21.2873C21.4872 21.2107 21.5639 21.1465 21.6513 21.0983C21.7388 21.05 21.8353 21.0188 21.9354 21.0062C22.0355 20.9937 22.1371 21.0001 22.2346 21.0252M24.5523 24.0163C24.6886 23.8715 24.8794 23.7843 25.0829 23.7741C25.2864 23.7638 25.4858 23.8312 25.6373 23.9615L27.417 25.4938C28.1721 26.1424 28.7971 26.6812 29.2275 27.1691C29.6783 27.6835 30 28.2351 30 28.917C30 29.5979 29.6793 30.1495 29.2275 30.6629C28.7971 31.1518 28.1721 31.6906 27.417 32.3392L25.6373 33.8715C25.4858 34.002 25.2863 34.0695 25.0827 34.0593C24.8792 34.0491 24.6882 33.962 24.5517 33.8172C24.4153 33.6723 24.3447 33.4816 24.3553 33.2869C24.366 33.0922 24.4571 32.9096 24.6086 32.7791L26.3473 31.2831C27.1547 30.5884 27.6988 30.1172 28.0512 29.7174C28.3893 29.3324 28.4631 29.108 28.4631 28.916C28.4631 28.724 28.3893 28.5006 28.0512 28.1156C27.6988 27.7148 27.1547 27.2436 26.3473 26.5499L24.6086 25.0539C24.5335 24.9893 24.4724 24.9112 24.4288 24.8241C24.3852 24.7369 24.3601 24.6424 24.3547 24.546C24.3494 24.4495 24.364 24.353 24.3977 24.262C24.4315 24.1709 24.4836 24.0871 24.5512 24.0153M15.3914 25.0539C15.5429 24.9234 15.634 24.7408 15.6447 24.5461C15.6553 24.3514 15.5847 24.1607 15.4483 24.0158C15.3118 23.871 15.1208 23.7839 14.9173 23.7737C14.7137 23.7635 14.5142 23.831 14.3627 23.9615L12.583 25.4938C11.8279 26.1424 11.2029 26.6812 10.7725 27.1691C10.3217 27.6835 10 28.2351 10 28.917C10 29.5979 10.3207 30.1495 10.7725 30.6629C11.2029 31.1518 11.8279 31.6906 12.583 32.3392L14.3627 33.8715C14.5142 34.002 14.7137 34.0695 14.9173 34.0593C15.1208 34.0491 15.3118 33.962 15.4483 33.8172C15.5847 33.6723 15.6553 33.4816 15.6447 33.2869C15.634 33.0922 15.5429 32.9096 15.3914 32.7791L13.6527 31.2831C12.8453 30.5884 12.3012 30.1172 11.9488 29.7174C11.6107 29.3324 11.5369 29.108 11.5369 28.916C11.5369 28.724 11.6107 28.5006 11.9488 28.1156C12.3012 27.7148 12.8453 27.2436 13.6527 26.5499L15.3914 25.0539Z" fill="white"/>
<path d="M5.2845 8.68457C5.16014 8.75951 5.05677 8.86779 4.98486 8.99845C4.91295 9.1291 4.87505 9.27749 4.875 9.42857V42C4.875 42.4731 5.239 42.8571 5.6875 42.8571H33.3125C33.528 42.8571 33.7347 42.7668 33.887 42.6061C34.0394 42.4453 34.125 42.2273 34.125 42V9.42857C34.125 9.27749 34.0871 9.1291 34.0151 8.99845C33.9432 8.86779 33.8399 8.75951 33.7155 8.68457C33.1561 8.34267 32.7483 7.78034 32.5819 7.12128C32.4156 6.46222 32.5042 5.76043 32.8282 5.17029C33.1523 4.58014 33.6854 4.14999 34.3101 3.97445C34.9349 3.79892 35.6001 3.89238 36.1595 4.23429C37.9178 5.30743 39 7.28571 39 9.42857V42C39 43.5913 38.4008 45.1174 37.3342 46.2426C36.2676 47.3679 34.8209 48 33.3125 48H5.6875C4.17908 48 2.73244 47.3679 1.66583 46.2426C0.599217 45.1174 0 43.5913 0 42V9.42857C0 7.28571 1.08225 5.30743 2.8405 4.23429C3.39991 3.89238 4.06515 3.79892 4.68988 3.97445C5.31461 4.14999 5.84766 4.58014 6.17175 5.17029C6.49584 5.76043 6.58444 6.46222 6.41805 7.12128C6.25166 7.78034 5.84391 8.34267 5.2845 8.68457ZM12.1875 0H26.8125C27.459 0 28.079 0.270918 28.5361 0.753154C28.9932 1.23539 29.25 1.88944 29.25 2.57143V12.8571C29.25 13.5391 28.9932 14.1932 28.5361 14.6754C28.079 15.1577 27.459 15.4286 26.8125 15.4286H12.1875C11.541 15.4286 10.921 15.1577 10.4639 14.6754C10.0068 14.1932 9.75 13.5391 9.75 12.8571V2.57143C9.75 1.88944 10.0068 1.23539 10.4639 0.753154C10.921 0.270918 11.541 0 12.1875 0ZM14.625 10.2857H24.375V5.14286H14.625V10.2857Z" fill="white"/>
</svg>
